<svg width="633" height="128" viewBox="0 0 633 128" fill="none" xmlns="http://www.w3.org/2000/svg">
<path d="M64 0C28.7041 0 0 28.6983 0 63.9869C0 89.3506 14.8379 111.327 36.2938 121.672V121.725H36.3988C44.7501 125.742 54.1256 128 64 128C99.2959 128 128 99.3017 128 64.0131C128 28.6983 99.2959 0 64 0ZM64 5.25128C96.3808 5.25128 122.748 31.6127 122.748 63.9869C122.748 73.2816 120.568 82.1038 116.707 89.9282C108.251 85.8322 99.6635 82.7865 90.9971 80.7122V31.7177C90.9971 30.0111 89.6578 28.6457 87.977 28.6457H77.2097H50.0812H39.3139C37.6594 28.6457 36.2938 30.0111 36.2938 31.7177V80.9485C27.89 83.0228 19.5388 86.016 11.3188 89.9545C7.43209 82.1038 5.25236 73.3079 5.25236 63.9869C5.25236 31.6127 31.6192 5.25128 64 5.25128ZM14.7066 95.8622C21.666 92.4226 28.888 89.7707 36.3201 87.9327V115.765C27.5224 111.065 20.0903 104.185 14.7066 95.8622ZM50.0812 121.042V55.4798C50.0812 47.8917 56.3053 41.6164 63.7374 41.6164C71.1695 41.6164 77.2097 47.7604 77.2097 55.3223C77.2097 55.3748 77.1834 55.4273 77.1834 55.4798H77.2097V78.2966C70.8806 77.5614 64.5252 77.3251 58.1699 77.6665L52.9438 85.2546C61.0849 84.5719 69.016 84.6244 76.842 85.5171C76.9208 85.5171 76.9733 85.5171 77.0521 85.5434C77.1046 85.5434 77.1572 85.5434 77.2359 85.5696C78.6016 85.7272 83.565 86.3573 88.1083 87.4864L77.2359 91.1885V121.252C72.9815 122.224 68.5696 122.775 64.0525 122.775C59.1941 122.722 54.5458 122.119 50.0812 121.042ZM90.9709 116.132V88.064C98.3767 89.9282 105.704 92.6589 113.057 96.2298C107.542 104.606 99.9261 111.485 90.9709 116.132Z" fill="url(#paint0_linear_4_4)"/>
<path d="M172.789 37.8125H180.664L195.465 77.293L210.23 37.8125H218.105L198.559 89H192.301L172.789 37.8125ZM169.203 37.8125H176.691L177.992 71.9844V89H169.203V37.8125ZM214.203 37.8125H221.727V89H212.902V71.9844L214.203 37.8125ZM268.846 37.8125H277.635V72.0195C277.635 75.9102 276.791 79.168 275.104 81.793C273.416 84.418 271.119 86.3984 268.213 87.7344C265.33 89.0469 262.107 89.7031 258.545 89.7031C254.865 89.7031 251.584 89.0469 248.701 87.7344C245.818 86.3984 243.545 84.418 241.881 81.793C240.24 79.168 239.42 75.9102 239.42 72.0195V37.8125H248.209V72.0195C248.209 74.4805 248.631 76.5078 249.475 78.1016C250.318 79.6719 251.514 80.832 253.061 81.582C254.607 82.332 256.436 82.707 258.545 82.707C260.654 82.707 262.471 82.332 263.994 81.582C265.541 80.832 266.736 79.6719 267.58 78.1016C268.424 76.5078 268.846 74.4805 268.846 72.0195V37.8125ZM327.215 82.0039V89H301.516V82.0039H327.215ZM303.977 37.8125V89H295.152V37.8125H303.977ZM354.225 37.8125V89H345.471V37.8125H354.225ZM370.291 37.8125V44.8438H329.545V37.8125H370.291ZM394.383 37.8125V89H385.559V37.8125H394.383ZM416.858 37.8125H424.733L439.534 77.293L454.299 37.8125H462.174L442.627 89H436.37L416.858 37.8125ZM413.272 37.8125H420.76L422.061 71.9844V89H413.272V37.8125ZM458.272 37.8125H465.795V89H456.971V71.9844L458.272 37.8125ZM504.758 44.6328L489.465 89H480.219L499.485 37.8125H505.391L504.758 44.6328ZM517.555 89L502.227 44.6328L501.559 37.8125H507.5L526.836 89H517.555ZM516.817 70.0156V77.0117H488.973V70.0156H516.817ZM567.417 75.8164C567.417 74.7617 567.253 73.8242 566.924 73.0039C566.62 72.1836 566.069 71.4336 565.272 70.7539C564.475 70.0742 563.35 69.418 561.897 68.7852C560.467 68.1289 558.639 67.4609 556.413 66.7812C553.975 66.0312 551.725 65.1992 549.663 64.2852C547.624 63.3477 545.842 62.2695 544.319 61.0508C542.795 59.8086 541.612 58.3906 540.768 56.7969C539.924 55.1797 539.503 53.3164 539.503 51.207C539.503 49.1211 539.936 47.2227 540.803 45.5117C541.694 43.8008 542.948 42.3242 544.565 41.082C546.206 39.8164 548.139 38.8438 550.366 38.1641C552.592 37.4609 555.053 37.1094 557.749 37.1094C561.545 37.1094 564.815 37.8125 567.557 39.2188C570.323 40.625 572.444 42.5117 573.92 44.8789C575.42 47.2461 576.17 49.8594 576.17 52.7188H567.417C567.417 51.0312 567.053 49.543 566.327 48.2539C565.624 46.9414 564.545 45.9102 563.092 45.1602C561.663 44.4102 559.846 44.0352 557.643 44.0352C555.557 44.0352 553.823 44.3516 552.44 44.9844C551.057 45.6172 550.026 46.4727 549.346 47.5508C548.667 48.6289 548.327 49.8477 548.327 51.207C548.327 52.168 548.549 53.0469 548.995 53.8438C549.44 54.6172 550.12 55.3438 551.034 56.0234C551.948 56.6797 553.096 57.3008 554.479 57.8867C555.862 58.4727 557.491 59.0352 559.366 59.5742C562.202 60.418 564.674 61.3555 566.784 62.3867C568.893 63.3945 570.651 64.543 572.057 65.832C573.463 67.1211 574.518 68.5859 575.221 70.2266C575.924 71.8438 576.276 73.6836 576.276 75.7461C576.276 77.9023 575.842 79.8477 574.975 81.582C574.108 83.293 572.866 84.7578 571.249 85.9766C569.655 87.1719 567.733 88.0977 565.483 88.7539C563.256 89.3867 560.772 89.7031 558.03 89.7031C555.569 89.7031 553.143 89.375 550.753 88.7188C548.385 88.0625 546.229 87.0664 544.284 85.7305C542.338 84.3711 540.792 82.6836 539.643 80.668C538.495 78.6289 537.92 76.25 537.92 73.5312H546.745C546.745 75.1953 547.026 76.6133 547.588 77.7852C548.174 78.957 548.983 79.918 550.014 80.668C551.045 81.3945 552.241 81.9336 553.6 82.2852C554.983 82.6367 556.46 82.8125 558.03 82.8125C560.092 82.8125 561.815 82.5195 563.198 81.9336C564.604 81.3477 565.659 80.5273 566.362 79.4727C567.065 78.418 567.417 77.1992 567.417 75.8164ZM600.825 37.8125V89H592.001V37.8125H600.825ZM631.587 37.8125L610.844 62.457L599.032 74.9727L597.485 66.2188L605.922 55.8125L620.829 37.8125H631.587ZM622.094 89L605.255 64.7422L611.337 58.7305L632.571 89H622.094Z" fill="#F5F5F5"/>
<defs>
<linearGradient id="paint0_linear_4_4" x1="63.9989" y1="130.769" x2="63.9989" y2="-19.6259" gradientUnits="userSpaceOnUse">
<stop offset="0.0858" stop-color="#8D29C1"/>
<stop offset="0.2383" stop-color="#942BBB"/>
<stop offset="0.4667" stop-color="#A92FAC"/>
<stop offset="0.7413" stop-color="#CA3793"/>
<stop offset="1" stop-color="#F03F77"/>
</linearGradient>
</defs>
</svg>
